<svg width="250" height="66" viewBox="0 0 250 66" fill="none" xmlns="http://www.w3.org/2000/svg">
<g clip-path="url(#clip0_78_332)">
<path d="M24 55.5L10.5 64.5933L10.5 46.4067L24 55.5Z" fill="black"/>
<path d="M9 10.5L22.5 1.40673V19.5933L9 10.5Z" fill="black"/>
<rect y="7" width="9" height="53" fill="black"/>
<rect x="29" y="6" width="9" height="33" fill="black"/>
<rect x="16" y="30" width="20" height="9" fill="black"/>
<rect x="22" y="6" width="16" height="9" fill="black"/>
<rect y="51" width="16" height="9" fill="black"/>
<path d="M50.54 41V25.16H57.228C57.382 25.16 57.5873 25.1673 57.844 25.182C58.108 25.1893 58.3427 25.2113 58.548 25.248C59.494 25.3947 60.2677 25.7063 60.869 26.183C61.4777 26.6597 61.925 27.261 62.211 27.987C62.497 28.7057 62.64 29.5087 62.64 30.396C62.64 31.2833 62.4933 32.09 62.2 32.816C61.914 33.5347 61.4667 34.1323 60.858 34.609C60.2567 35.0857 59.4867 35.3973 58.548 35.544C58.3427 35.5733 58.108 35.5953 57.844 35.61C57.58 35.6247 57.3747 35.632 57.228 35.632H53.532V41H50.54ZM53.532 32.838H57.096C57.25 32.838 57.4187 32.8307 57.602 32.816C57.7853 32.8013 57.954 32.772 58.108 32.728C58.5113 32.618 58.823 32.4347 59.043 32.178C59.263 31.914 59.4133 31.6243 59.494 31.309C59.582 30.9863 59.626 30.682 59.626 30.396C59.626 30.11 59.582 29.8093 59.494 29.494C59.4133 29.1713 59.263 28.8817 59.043 28.625C58.823 28.361 58.5113 28.174 58.108 28.064C57.954 28.02 57.7853 27.9907 57.602 27.976C57.4187 27.9613 57.25 27.954 57.096 27.954H53.532V32.838ZM64.8486 41V25.16H67.8406V31.672H74.9246V25.16H77.9166V41H74.9246V34.466H67.8406V41H64.8486ZM87.8028 41.33C86.2188 41.33 84.8512 40.9853 83.6998 40.296C82.5558 39.6067 81.6722 38.6423 81.0488 37.403C80.4328 36.1637 80.1248 34.7227 80.1248 33.08C80.1248 31.4373 80.4328 29.9963 81.0488 28.757C81.6722 27.5177 82.5558 26.5533 83.6998 25.864C84.8512 25.1747 86.2188 24.83 87.8028 24.83C89.3868 24.83 90.7508 25.1747 91.8948 25.864C93.0462 26.5533 93.9298 27.5177 94.5458 28.757C95.1692 29.9963 95.4808 31.4373 95.4808 33.08C95.4808 34.7227 95.1692 36.1637 94.5458 37.403C93.9298 38.6423 93.0462 39.6067 91.8948 40.296C90.7508 40.9853 89.3868 41.33 87.8028 41.33ZM87.8028 38.514C88.8075 38.5287 89.6435 38.3123 90.3108 37.865C90.9782 37.4177 91.4768 36.7833 91.8068 35.962C92.1442 35.1407 92.3128 34.18 92.3128 33.08C92.3128 31.98 92.1442 31.0267 91.8068 30.22C91.4768 29.4133 90.9782 28.7863 90.3108 28.339C89.6435 27.8917 88.8075 27.6607 87.8028 27.646C86.7982 27.6313 85.9622 27.8477 85.2948 28.295C84.6275 28.7423 84.1252 29.3767 83.7878 30.198C83.4578 31.0193 83.2928 31.98 83.2928 33.08C83.2928 34.18 83.4578 35.1333 83.7878 35.94C84.1252 36.7467 84.6275 37.3737 85.2948 37.821C85.9622 38.2683 86.7982 38.4993 87.8028 38.514ZM97.6767 41V25.16H100.713L107.599 35.72V25.16H110.635V41H107.599L100.713 30.44V41H97.6767ZM113.704 41V25.16H124.044V27.954H116.696V31.342H122.724V34.136H116.696V38.206H124.044V41H113.704Z" fill="black"/>
<path d="M131.085 41V25.16H141.425V27.954H134.077V31.342H140.105V34.136H134.077V38.206H141.425V41H131.085ZM142.741 41L148.065 32.992L142.895 25.16H146.569L149.935 30.44L153.257 25.16H156.953L151.783 32.992L157.085 41H153.411L149.935 35.544L146.437 41H142.741ZM164.975 41.33C163.391 41.33 162.023 40.9853 160.872 40.296C159.728 39.6067 158.844 38.6423 158.221 37.403C157.605 36.1637 157.297 34.7227 157.297 33.08C157.297 31.4373 157.605 29.9963 158.221 28.757C158.844 27.5177 159.728 26.5533 160.872 25.864C162.023 25.1747 163.391 24.83 164.975 24.83C166.793 24.83 168.319 25.281 169.551 26.183C170.79 27.085 171.663 28.306 172.169 29.846L169.155 30.682C168.861 29.7213 168.366 28.977 167.67 28.449C166.973 27.9137 166.075 27.646 164.975 27.646C163.97 27.646 163.13 27.8697 162.456 28.317C161.788 28.7643 161.286 29.395 160.949 30.209C160.611 31.023 160.443 31.98 160.443 33.08C160.443 34.18 160.611 35.137 160.949 35.951C161.286 36.765 161.788 37.3957 162.456 37.843C163.13 38.2903 163.97 38.514 164.975 38.514C166.075 38.514 166.973 38.2463 167.67 37.711C168.366 37.1757 168.861 36.4313 169.155 35.478L172.169 36.314C171.663 37.854 170.79 39.075 169.551 39.977C168.319 40.879 166.793 41.33 164.975 41.33ZM174.591 41V25.16H177.583V31.672H184.667V25.16H187.659V41H184.667V34.466H177.583V41H174.591ZM189.647 41L194.487 25.16H198.953L203.793 41H200.713L196.401 27.03H196.973L192.727 41H189.647ZM192.551 37.7V34.906H200.911V37.7H192.551ZM205.765 41V25.16H208.801L215.687 35.72V25.16H218.723V41H215.687L208.801 30.44V41H205.765ZM228.392 41.33C227.395 41.33 226.445 41.154 225.543 40.802C224.641 40.4427 223.842 39.9147 223.145 39.218C222.456 38.5213 221.909 37.6597 221.506 36.633C221.11 35.6063 220.912 34.422 220.912 33.08C220.912 31.3273 221.246 29.8387 221.913 28.614C222.588 27.382 223.49 26.4433 224.619 25.798C225.756 25.1527 227.013 24.83 228.392 24.83C230.431 24.83 232.033 25.303 233.199 26.249C234.365 27.195 235.146 28.5333 235.542 30.264L232.484 30.704C232.198 29.78 231.729 29.043 231.076 28.493C230.431 27.9357 229.602 27.6533 228.59 27.646C227.585 27.6313 226.749 27.8477 226.082 28.295C225.415 28.7423 224.912 29.3767 224.575 30.198C224.245 31.0193 224.08 31.98 224.08 33.08C224.08 34.18 224.245 35.1333 224.575 35.94C224.912 36.7467 225.415 37.3737 226.082 37.821C226.749 38.2683 227.585 38.4993 228.59 38.514C229.272 38.5287 229.888 38.4113 230.438 38.162C230.995 37.9127 231.465 37.5203 231.846 36.985C232.227 36.4497 232.499 35.764 232.66 34.928H230.152V32.618H235.85C235.865 32.7133 235.876 32.882 235.883 33.124C235.89 33.366 235.894 33.5053 235.894 33.542C235.894 35.06 235.586 36.4057 234.97 37.579C234.354 38.7523 233.485 39.6727 232.363 40.34C231.241 41 229.917 41.33 228.392 41.33ZM238.099 41V25.16H248.439V27.954H241.091V31.342H247.119V34.136H241.091V38.206H248.439V41H238.099Z" fill="#00429F"/>
</g>
<defs>
<clipPath id="clip0_78_332">
<rect width="250" height="66" fill="white"/>
</clipPath>
</defs>
</svg>
